<svg width="1920" height="957" xmlns="http://www.w3.org/2000/svg"><g><path d="M-51,-98L-77,36L104,25Z" fill="#b1002a" stroke="#b1002a"/><path d="M-51,-98L104,25L128,-38Z" fill="#b2082a" stroke="#b2082a"/><path d="M-51,-98L128,-38L345,-134Z" fill="#ac122a" stroke="#ac122a"/><path d="M128,-38L104,25L238,94Z" fill="#d21c2a" stroke="#d21c2a"/><path d="M128,-38L238,94L275,-68Z" fill="#cf1c2c" stroke="#cf1c2c"/><path d="M128,-38L275,-68L345,-134Z" fill="#bb212e" stroke="#bb212e"/><path d="M275,-68L238,94L336,47Z" fill="#dd2e31" stroke="#dd2e31"/><path d="M275,-68L336,47L345,-134Z" fill="#c82c33" stroke="#c82c33"/><path d="M345,-134L336,47L468,-16Z" fill="#d23738" stroke="#d23738"/><path d="M345,-134L468,-16L618,-135Z" fill="#c2463f" stroke="#c2463f"/><path d="M468,-16L336,47L566,126Z" fill="#ee533e" stroke="#ee533e"/><path d="M468,-16L566,126L656,112Z" fill="#f76b47" stroke="#f76b47"/><path d="M468,-16L656,112L618,-135Z" fill="#dd5848" stroke="#dd5848"/><path d="M618,-135L656,112L832,-70Z" fill="#d86857" stroke="#d86857"/><path d="M618,-135L832,-70L959,-67Z" fill="#c47268" stroke="#c47268"/><path d="M618,-135L959,-67L1533,-133Z" fill="#a6758f" stroke="#a6758f"/><path d="M832,-70L656,112L821,101Z" fill="#f07e5f" stroke="#f07e5f"/><path d="M832,-70L821,101L950,42Z" fill="#e17c7a" stroke="#e17c7a"/><path d="M832,-70L950,42L959,-67Z" fill="#cd7786" stroke="#cd7786"/><path d="M959,-67L950,42L1153,17Z" fill="#c97690" stroke="#c97690"/><path d="M959,-67L1153,17L1158,-15Z" fill="#ba718e" stroke="#ba718e"/><path d="M959,-67L1158,-15L1325,-49Z" fill="#ac6d8b" stroke="#ac6d8b"/><path d="M959,-67L1325,-49L1533,-133Z" fill="#8e5f83" stroke="#8e5f83"/><path d="M1158,-15L1153,17L1225,82Z" fill="#bd728a" stroke="#bd728a"/><path d="M1158,-15L1225,82L1325,-49Z" fill="#ae6586" stroke="#ae6586"/><path d="M1325,-49L1225,82L1402,23Z" fill="#a65f81" stroke="#a65f81"/><path d="M1325,-49L1402,23L1384,-45Z" fill="#93537d" stroke="#93537d"/><path d="M1325,-49L1384,-45L1533,-133Z" fill="#7d4d79" stroke="#7d4d79"/><path d="M1384,-45L1402,23L1533,-133Z" fill="#824978" stroke="#824978"/><path d="M1533,-133L1402,23L1567,130Z" fill="#8c4273" stroke="#8c4273"/><path d="M1533,-133L1567,130L1711,-54Z" fill="#7c306b" stroke="#7c306b"/><path d="M1533,-133L1711,-54L2019,-38Z" fill="#63175f" stroke="#63175f"/><path d="M1711,-54L1567,130L1731,128Z" fill="#933966" stroke="#933966"/><path d="M1711,-54L1731,128L1858,-18Z" fill="#7f1a5e" stroke="#7f1a5e"/><path d="M1711,-54L1858,-18L2019,-38Z" fill="#690556" stroke="#690556"/><path d="M1858,-18L1731,128L1922,109Z" fill="#8c1f59" stroke="#8c1f59"/><path d="M1858,-18L1922,109L2019,-38Z" fill="#760651" stroke="#760651"/><path d="M2019,-38L1922,109L2074,80Z" fill="#7c0f4b" stroke="#7c0f4b"/><path d="M-77,36L-106,466L-77,381Z" fill="#c76a4f" stroke="#c76a4f"/><path d="M-77,36L-77,381L-44,179Z" fill="#ca443d" stroke="#ca443d"/><path d="M-77,36L-44,179L104,25Z" fill="#cd182a" stroke="#cd182a"/><path d="M104,25L-44,179L79,212Z" fill="#d83332" stroke="#d83332"/><path d="M104,25L79,212L238,94Z" fill="#e5342d" stroke="#e5342d"/><path d="M238,94L79,212L223,263Z" fill="#ea573b" stroke="#ea573b"/><path d="M238,94L223,263L414,231Z" fill="#f36b44" stroke="#f36b44"/><path d="M238,94L414,231L336,47Z" fill="#f6563a" stroke="#f6563a"/><path d="M336,47L414,231L566,126Z" fill="#fb6c44" stroke="#fb6c44"/><path d="M566,126L414,231L561,170Z" fill="#fd8851" stroke="#fd8851"/><path d="M566,126L561,170L656,112Z" fill="#fe8651" stroke="#fe8651"/><path d="M656,112L561,170L728,284Z" fill="#fea161" stroke="#fea161"/><path d="M656,112L728,284L821,101Z" fill="#ffa368" stroke="#ffa368"/><path d="M821,101L728,284L870,203Z" fill="#fcb57c" stroke="#fcb57c"/><path d="M821,101L870,203L950,42Z" fill="#f69a81" stroke="#f69a81"/><path d="M950,42L870,203L996,181Z" fill="#f1a795" stroke="#f1a795"/><path d="M950,42L996,181L1153,17Z" fill="#e18d90" stroke="#e18d90"/><path d="M1153,17L996,181L1164,174Z" fill="#dc9793" stroke="#dc9793"/><path d="M1153,17L1164,174L1225,82Z" fill="#d0848a" stroke="#d0848a"/><path d="M1225,82L1164,174L1303,191Z" fill="#ca9590" stroke="#ca9590"/><path d="M1225,82L1303,191L1402,23Z" fill="#bf7882" stroke="#bf7882"/><path d="M1402,23L1303,191L1419,281Z" fill="#b6898a" stroke="#b6898a"/><path d="M1402,23L1419,281L1567,130Z" fill="#ab747f" stroke="#ab747f"/><path d="M1567,130L1419,281L1585,227Z" fill="#a48687" stroke="#a48687"/><path d="M1567,130L1585,227L1731,128Z" fill="#9d6175" stroke="#9d6175"/><path d="M1731,128L1585,227L1771,281Z" fill="#9a6a79" stroke="#9a6a79"/><path d="M1731,128L1771,281L1838,247Z" fill="#965f74" stroke="#965f74"/><path d="M1731,128L1838,247L1922,109Z" fill="#934065" stroke="#934065"/><path d="M1922,109L1838,247L2053,257Z" fill="#8d4664" stroke="#8d4664"/><path d="M1922,109L2053,257L2074,80Z" fill="#893154" stroke="#893154"/><path d="M2074,80L2053,257L2067,408Z" fill="#875862" stroke="#875862"/><path d="M-44,179L-77,381L79,212Z" fill="#d05c47" stroke="#d05c47"/><path d="M79,212L-77,381L97,422Z" fill="#d7795c" stroke="#d7795c"/><path d="M79,212L97,422L212,360Z" fill="#e3835a" stroke="#e3835a"/><path d="M79,212L212,360L223,263Z" fill="#e97a4c" stroke="#e97a4c"/><path d="M223,263L212,360L339,354Z" fill="#f0945e" stroke="#f0945e"/><path d="M223,263L339,354L414,231Z" fill="#f59356" stroke="#f59356"/><path d="M414,231L339,354L491,378Z" fill="#faac68" stroke="#faac68"/><path d="M414,231L491,378L561,170Z" fill="#fca55e" stroke="#fca55e"/><path d="M561,170L491,378L698,376Z" fill="#fec571" stroke="#fec571"/><path d="M561,170L698,376L728,284Z" fill="#fec673" stroke="#fec673"/><path d="M728,284L698,376L828,343Z" fill="#ffe28e" stroke="#ffe28e"/><path d="M728,284L828,343L870,203Z" fill="#fcd68b" stroke="#fcd68b"/><path d="M870,203L828,343L996,181Z" fill="#f5cc9d" stroke="#f5cc9d"/><path d="M996,181L828,343L1001,431Z" fill="#f1e8ba" stroke="#f1e8ba"/><path d="M996,181L1001,431L1140,335Z" fill="#e4e2bb" stroke="#e4e2bb"/><path d="M996,181L1140,335L1164,174Z" fill="#dcc1a6" stroke="#dcc1a6"/><path d="M1164,174L1140,335L1258,325Z" fill="#d0cdab" stroke="#d0cdab"/><path d="M1164,174L1258,325L1303,191Z" fill="#c8b39e" stroke="#c8b39e"/><path d="M1303,191L1258,325L1419,281Z" fill="#bcb89f" stroke="#bcb89f"/><path d="M1419,281L1258,325L1397,357Z" fill="#b8c5ab" stroke="#b8c5ab"/><path d="M1419,281L1397,357L1565,396Z" fill="#acbcaa" stroke="#acbcaa"/><path d="M1419,281L1565,396L1585,227Z" fill="#a4a899" stroke="#a4a899"/><path d="M1585,227L1565,396L1771,281Z" fill="#9d958f" stroke="#9d958f"/><path d="M1771,281L1565,396L1773,434Z" fill="#9a9c9f" stroke="#9a9c9f"/><path d="M1771,281L1773,434L1846,409Z" fill="#958d99" stroke="#958d99"/><path d="M1771,281L1846,409L1838,247Z" fill="#947a84" stroke="#947a84"/><path d="M1838,247L1846,409L2053,257Z" fill="#8f6c7a" stroke="#8f6c7a"/><path d="M2053,257L1846,409L2067,408Z" fill="#8b7a84" stroke="#8b7a84"/><path d="M-77,381L-106,466L20,487Z" fill="#cb8084" stroke="#cb8084"/><path d="M-77,381L20,487L97,422Z" fill="#d4817e" stroke="#d4817e"/><path d="M97,422L20,487L224,520Z" fill="#e18e92" stroke="#e18e92"/><path d="M97,422L224,520L212,360Z" fill="#e99680" stroke="#e99680"/><path d="M212,360L224,520L339,354Z" fill="#f0a27b" stroke="#f0a27b"/><path d="M339,354L224,520L385,513Z" fill="#f5ab95" stroke="#f5ab95"/><path d="M339,354L385,513L491,378Z" fill="#faba87" stroke="#faba87"/><path d="M491,378L385,513L500,550Z" fill="#fbc3a7" stroke="#fbc3a7"/><path d="M491,378L500,550L636,544Z" fill="#fad1ae" stroke="#fad1ae"/><path d="M491,378L636,544L698,376Z" fill="#fedba0" stroke="#fedba0"/><path d="M698,376L636,544L857,539Z" fill="#fdebc3" stroke="#fdebc3"/><path d="M698,376L857,539L828,343Z" fill="#fdf1b5" stroke="#fdf1b5"/><path d="M828,343L857,539L1001,431Z" fill="#f5f6d9" stroke="#f5f6d9"/><path d="M1001,431L857,539L1009,543Z" fill="#e9f9fb" stroke="#e9f9fb"/><path d="M1001,431L1009,543L1161,523Z" fill="#ddf3f8" stroke="#ddf3f8"/><path d="M1001,431L1161,523L1140,335Z" fill="#dcf0e1" stroke="#dcf0e1"/><path d="M1140,335L1161,523L1258,325Z" fill="#d0e8ce" stroke="#d0e8ce"/><path d="M1258,325L1161,523L1332,484Z" fill="#c7e1df" stroke="#c7e1df"/><path d="M1258,325L1332,484L1397,357Z" fill="#bcd8c2" stroke="#bcd8c2"/><path d="M1397,357L1332,484L1468,510Z" fill="#b3ced8" stroke="#b3ced8"/><path d="M1397,357L1468,510L1565,396Z" fill="#aac3c5" stroke="#aac3c5"/><path d="M1565,396L1468,510L1581,577Z" fill="#9ebada" stroke="#9ebada"/><path d="M1565,396L1581,577L1712,492Z" fill="#9badd3" stroke="#9badd3"/><path d="M1565,396L1712,492L1773,434Z" fill="#9ba2bd" stroke="#9ba2bd"/><path d="M1773,434L1712,492L1886,502Z" fill="#9591c4" stroke="#9591c4"/><path d="M1773,434L1886,502L1846,409Z" fill="#9389b5" stroke="#9389b5"/><path d="M1846,409L1886,502L2067,408Z" fill="#8e80a9" stroke="#8e80a9"/><path d="M2067,408L1886,502L2030,548Z" fill="#8880b5" stroke="#8880b5"/><path d="M2067,408L2030,548L2021,857Z" fill="#6478b0" stroke="#6478b0"/><path d="M2067,408L2021,857L2019,986Z" fill="#364ba0" stroke="#364ba0"/><path d="M2067,408L2019,986L2009,1181Z" fill="#26218c" stroke="#26218c"/><path d="M-106,466L-24,1132L-49,874Z" fill="#6c2f73" stroke="#6c2f73"/><path d="M-106,466L-49,874L-45,733Z" fill="#89608c" stroke="#89608c"/><path d="M-106,466L-45,733L20,487Z" fill="#b78093" stroke="#b78093"/><path d="M20,487L-45,733L120,703Z" fill="#a67391" stroke="#a67391"/><path d="M20,487L120,703L224,520Z" fill="#ca8f93" stroke="#ca8f93"/><path d="M224,520L120,703L252,628Z" fill="#c38e92" stroke="#c38e92"/><path d="M224,520L252,628L318,616Z" fill="#d2a098" stroke="#d2a098"/><path d="M224,520L318,616L385,513Z" fill="#e1aa9c" stroke="#e1aa9c"/><path d="M385,513L318,616L482,684Z" fill="#d6b1a1" stroke="#d6b1a1"/><path d="M385,513L482,684L500,550Z" fill="#dfc0a6" stroke="#dfc0a6"/><path d="M500,550L482,684L636,544Z" fill="#ddccad" stroke="#ddccad"/><path d="M636,544L482,684L714,679Z" fill="#d0ccb2" stroke="#d0ccb2"/><path d="M636,544L714,679L857,539Z" fill="#e1e8c3" stroke="#e1e8c3"/><path d="M857,539L714,679L855,653Z" fill="#d1e5d1" stroke="#d1e5d1"/><path d="M857,539L855,653L979,633Z" fill="#cfeeea" stroke="#cfeeea"/><path d="M857,539L979,633L1009,543Z" fill="#d8f9f9" stroke="#d8f9f9"/><path d="M1009,543L979,633L1135,650Z" fill="#bfebf8" stroke="#bfebf8"/><path d="M1009,543L1135,650L1161,523Z" fill="#c3f0f6" stroke="#c3f0f6"/><path d="M1161,523L1135,650L1279,682Z" fill="#a7dcf0" stroke="#a7dcf0"/><path d="M1161,523L1279,682L1332,484Z" fill="#b0e0ee" stroke="#b0e0ee"/><path d="M1332,484L1279,682L1377,687Z" fill="#93cde8" stroke="#93cde8"/><path d="M1332,484L1377,687L1468,510Z" fill="#9ecfe5" stroke="#9ecfe5"/><path d="M1468,510L1377,687L1581,577Z" fill="#8abfde" stroke="#8abfde"/><path d="M1581,577L1377,687L1601,646Z" fill="#75add9" stroke="#75add9"/><path d="M1581,577L1601,646L1740,655Z" fill="#719cd0" stroke="#719cd0"/><path d="M1581,577L1740,655L1712,492Z" fill="#81a3ce" stroke="#81a3ce"/><path d="M1712,492L1740,655L1886,502Z" fill="#8392c6" stroke="#8392c6"/><path d="M1886,502L1740,655L1849,686Z" fill="#6c80c1" stroke="#6c80c1"/><path d="M1886,502L1849,686L1992,673Z" fill="#6574ba" stroke="#6574ba"/><path d="M1886,502L1992,673L2030,548Z" fill="#7280b7" stroke="#7280b7"/><path d="M2030,548L1992,673L2021,857Z" fill="#485fac" stroke="#485fac"/><path d="M-45,733L-49,874L26,817Z" fill="#733577" stroke="#733577"/><path d="M-45,733L26,817L120,703Z" fill="#854f81" stroke="#854f81"/><path d="M120,703L26,817L279,872Z" fill="#8a4b79" stroke="#8a4b79"/><path d="M120,703L279,872L252,628Z" fill="#a06d87" stroke="#a06d87"/><path d="M252,628L279,872L318,616Z" fill="#ad8190" stroke="#ad8190"/><path d="M318,616L279,872L428,816Z" fill="#a0758a" stroke="#a0758a"/><path d="M318,616L428,816L482,684Z" fill="#b5969a" stroke="#b5969a"/><path d="M482,684L428,816L514,857Z" fill="#a38490" stroke="#a38490"/><path d="M482,684L514,857L654,825Z" fill="#a48f96" stroke="#a48f96"/><path d="M482,684L654,825L714,679Z" fill="#b2afa8" stroke="#b2afa8"/><path d="M714,679L654,825L802,805Z" fill="#a8aead" stroke="#a8aead"/><path d="M714,679L802,805L855,653Z" fill="#b6c9c3" stroke="#b6c9c3"/><path d="M855,653L802,805L1018,837Z" fill="#9fbcd5" stroke="#9fbcd5"/><path d="M855,653L1018,837L979,633Z" fill="#abd3f0" stroke="#abd3f0"/><path d="M979,633L1018,837L1135,650Z" fill="#9fceef" stroke="#9fceef"/><path d="M1135,650L1018,837L1177,820Z" fill="#84b4e1" stroke="#84b4e1"/><path d="M1135,650L1177,820L1279,682Z" fill="#86bee6" stroke="#86bee6"/><path d="M1279,682L1177,820L1238,823Z" fill="#72a6d9" stroke="#72a6d9"/><path d="M1279,682L1238,823L1377,687Z" fill="#74aedd" stroke="#74aedd"/><path d="M1377,687L1238,823L1441,878Z" fill="#5e8fce" stroke="#5e8fce"/><path d="M1377,687L1441,878L1551,792Z" fill="#5384c8" stroke="#5384c8"/><path d="M1377,687L1551,792L1601,646Z" fill="#6098d2" stroke="#6098d2"/><path d="M1601,646L1551,792L1733,825Z" fill="#4a75c0" stroke="#4a75c0"/><path d="M1601,646L1733,825L1740,655Z" fill="#547bc3" stroke="#547bc3"/><path d="M1740,655L1733,825L1849,686Z" fill="#4c69ba" stroke="#4c69ba"/><path d="M1849,686L1733,825L1834,839Z" fill="#3c4dad" stroke="#3c4dad"/><path d="M1849,686L1834,839L1992,673Z" fill="#4351af" stroke="#4351af"/><path d="M1992,673L1834,839L2021,857Z" fill="#333ca0" stroke="#333ca0"/><path d="M-49,874L-24,1132L-25,961Z" fill="#5b0054" stroke="#5b0054"/><path d="M-49,874L-25,961L26,817Z" fill="#6b1768" stroke="#6b1768"/><path d="M26,817L-25,961L97,964Z" fill="#6e1062" stroke="#6e1062"/><path d="M26,817L97,964L279,872Z" fill="#7e2868" stroke="#7e2868"/><path d="M279,872L97,964L278,916Z" fill="#842664" stroke="#842664"/><path d="M279,872L278,916L389,955Z" fill="#8c376b" stroke="#8c376b"/><path d="M279,872L389,955L428,816Z" fill="#934c75" stroke="#934c75"/><path d="M428,816L389,955L514,857Z" fill="#975b7c" stroke="#975b7c"/><path d="M514,857L389,955L556,1010Z" fill="#904973" stroke="#904973"/><path d="M514,857L556,1010L627,966Z" fill="#915679" stroke="#915679"/><path d="M514,857L627,966L654,825Z" fill="#997288" stroke="#997288"/><path d="M654,825L627,966L820,940Z" fill="#96748f" stroke="#96748f"/><path d="M654,825L820,940L802,805Z" fill="#9d91a1" stroke="#9d91a1"/><path d="M802,805L820,940L1018,837Z" fill="#9496c0" stroke="#9496c0"/><path d="M1018,837L820,940L1007,946Z" fill="#8887c9" stroke="#8887c9"/><path d="M1018,837L1007,946L1147,925Z" fill="#7b83c9" stroke="#7b83c9"/><path d="M1018,837L1147,925L1177,820Z" fill="#788fcf" stroke="#788fcf"/><path d="M1177,820L1147,925L1238,823Z" fill="#6e8bcd" stroke="#6e8bcd"/><path d="M1238,823L1147,925L1258,966Z" fill="#6475c1" stroke="#6475c1"/><path d="M1238,823L1258,966L1392,952Z" fill="#5868bb" stroke="#5868bb"/><path d="M1238,823L1392,952L1441,878Z" fill="#536cbc" stroke="#536cbc"/><path d="M1441,878L1392,952L1545,996Z" fill="#3f46aa" stroke="#3f46aa"/><path d="M1441,878L1545,996L1551,792Z" fill="#3f54b0" stroke="#3f54b0"/><path d="M1551,792L1545,996L1703,945Z" fill="#363da5" stroke="#363da5"/><path d="M1551,792L1703,945L1733,825Z" fill="#3a49ab" stroke="#3a49ab"/><path d="M1733,825L1703,945L1834,839Z" fill="#3333a0" stroke="#3333a0"/><path d="M1834,839L1703,945L1874,1019Z" fill="#291290" stroke="#291290"/><path d="M1834,839L1874,1019L2021,857Z" fill="#270f8d" stroke="#270f8d"/><path d="M2021,857L1874,1019L2019,986Z" fill="#1e007e" stroke="#1e007e"/><path d="M-25,961L-24,1132L97,964Z" fill="#5e024e" stroke="#5e024e"/><path d="M97,964L-24,1132L118,1127Z" fill="#5e0843" stroke="#5e0843"/><path d="M97,964L118,1127L217,1069Z" fill="#6b1248" stroke="#6b1248"/><path d="M97,964L217,1069L278,916Z" fill="#7a1956" stroke="#7a1956"/><path d="M278,916L217,1069L389,955Z" fill="#82295d" stroke="#82295d"/><path d="M389,955L217,1069L350,1180Z" fill="#782c4e" stroke="#782c4e"/><path d="M389,955L350,1180L475,1084Z" fill="#7d3a53" stroke="#7d3a53"/><path d="M389,955L475,1084L556,1010Z" fill="#864664" stroke="#864664"/><path d="M556,1010L475,1084L677,1170Z" fill="#7f565d" stroke="#7f565d"/><path d="M556,1010L677,1170L627,966Z" fill="#845d6b" stroke="#845d6b"/><path d="M627,966L677,1170L782,1163Z" fill="#7f676a" stroke="#7f676a"/><path d="M627,966L782,1163L820,940Z" fill="#886d7f" stroke="#886d7f"/><path d="M820,940L782,1163L929,1111Z" fill="#7c748d" stroke="#7c748d"/><path d="M820,940L929,1111L1007,946Z" fill="#7f78b0" stroke="#7f78b0"/><path d="M1007,946L929,1111L1182,1072Z" fill="#6b74af" stroke="#6b74af"/><path d="M1007,946L1182,1072L1147,925Z" fill="#696fb8" stroke="#696fb8"/><path d="M1147,925L1182,1072L1258,966Z" fill="#5c68b3" stroke="#5c68b3"/><path d="M1258,966L1182,1072L1262,1156Z" fill="#4e63a1" stroke="#4e63a1"/><path d="M1258,966L1262,1156L1369,1151Z" fill="#415c98" stroke="#415c98"/><path d="M1258,966L1369,1151L1392,952Z" fill="#4357a3" stroke="#4357a3"/><path d="M1392,952L1369,1151L1545,996Z" fill="#37499a" stroke="#37499a"/><path d="M1545,996L1369,1151L1621,1110Z" fill="#273e8a" stroke="#273e8a"/><path d="M1545,996L1621,1110L1703,945Z" fill="#282c8e" stroke="#282c8e"/><path d="M1703,945L1621,1110L1699,1136Z" fill="#1f2481" stroke="#1f2481"/><path d="M1703,945L1699,1136L1874,1019Z" fill="#1f1680" stroke="#1f1680"/><path d="M1874,1019L1699,1136L1823,1174Z" fill="#15106e" stroke="#15106e"/><path d="M1874,1019L1823,1174L2009,1181Z" fill="#100063" stroke="#100063"/><path d="M1874,1019L2009,1181L2019,986Z" fill="#100069" stroke="#100069"/><path d="M-24,1132L350,1180L118,1127Z" fill="#661336" stroke="#661336"/><path d="M118,1127L350,1180L217,1069Z" fill="#6e1e3c" stroke="#6e1e3c"/><path d="M350,1180L2009,1181L677,1170Z" fill="#697696" stroke="#697696"/><path d="M350,1180L677,1170L475,1084Z" fill="#7d4a4d" stroke="#7d4a4d"/><path d="M677,1170L2009,1181L1823,1174Z" fill="#274079" stroke="#274079"/><path d="M677,1170L1823,1174L1262,1156Z" fill="#47618c" stroke="#47618c"/><path d="M677,1170L1262,1156L782,1163Z" fill="#74778c" stroke="#74778c"/><path d="M782,1163L1262,1156L929,1111Z" fill="#6c789e" stroke="#6c789e"/><path d="M929,1111L1262,1156L1182,1072Z" fill="#5a6f9e" stroke="#5a6f9e"/><path d="M1262,1156L1823,1174L1369,1151Z" fill="#29427d" stroke="#29427d"/><path d="M1369,1151L1823,1174L1699,1136Z" fill="#1e2b73" stroke="#1e2b73"/><path d="M1369,1151L1699,1136L1621,1110Z" fill="#21367d" stroke="#21367d"/></g></svg>